<svg xmlns="http://www.w3.org/2000/svg" xmlns:svg="http://www.w3.org/2000/svg" viewBox="0 0 24 30" version="1.1" x="0px" y="0px"><g><path style="color:#000000;" d="M 12,2 C 6.4830803,2 2,6.4830803 2,12 c 0,5.51692 4.4830803,10 10,10 5.313199,0 9.706545,-4.166829 9.986328,-9.472656 A 0.5,0.5 0 0 0 21.513672,12 0.5,0.5 0 0 0 20.988281,12.474609 C 20.735975,17.259359 16.791397,21 12,21 7.0235199,21 3,16.97648 3,12 3,7.0235199 7.0235199,3 12,3 c 3.619194,10e-8 6.85127,2.1814586 8.259766,5.5 H 18.5 A 0.5,0.5 0 0 0 18,9 0.5,0.5 0 0 0 18.5,9.5 h 3 A 0.50005,0.50005 0 0 0 22,9 V 6 A 0.5,0.5 0 0 0 21.5,5.5 0.5,0.5 0 0 0 21,6 V 7.8066406 C 19.364774,4.3073162 15.89804,2.0000001 12,2 Z" fill="#000000" stroke-linecap="round" stroke-linejoin="round"/><path style="color:#000000;" d="m 12,6 c -3.3077763,0 -6,2.6922237 -6,6 0,3.307777 2.6922237,6 6,6 3.307777,0 6,-2.692223 6,-6 0,-3.3077763 -2.692223,-6 -6,-6 z m 0,2.5 A 0.5,0.5 0 0 1 12.5,9 v 2.792969 l 1.853516,1.853515 a 0.5,0.5 0 0 1 0,0.707032 0.5,0.5 0 0 1 -0.707032,0 l -2,-2 A 0.50005,0.50005 0 0 1 11.5,12 V 9 A 0.5,0.5 0 0 1 12,8.5 Z" fill="#000000" stroke-linecap="round" stroke-linejoin="round"/></g><text x="0" y="39" fill="#000000" font-size="5px" font-weight="bold" font-family="'Helvetica Neue', Helvetica, Arial-Unicode, Arial, Sans-serif">Created by Ian Anandara</text><text x="0" y="44" fill="#000000" font-size="5px" font-weight="bold" font-family="'Helvetica Neue', Helvetica, Arial-Unicode, Arial, Sans-serif">from the Noun Project</text></svg>